<?xml version="1.0" encoding="UTF-8" standalone="no"?>
<svg
   xmlns:dc="http://purl.org/dc/elements/1.1/"
   xmlns:cc="http://creativecommons.org/ns#"
   xmlns:rdf="http://www.w3.org/1999/02/22-rdf-syntax-ns#"
   xmlns:svg="http://www.w3.org/2000/svg"
   xmlns="http://www.w3.org/2000/svg"
   version="1.1"
   id="svg136830"
   viewBox="0 0 300 150.80698">
  <defs
     id="defs136832">
    <clipPath
       id="clipPath135130"
       clipPathUnits="userSpaceOnUse">
      <path
         id="path135132"
         d="m 0,0 752.598,0 0,14400 L 0,14400 0,0 Z" />
    </clipPath>
    <clipPath
       id="clipPath135018"
       clipPathUnits="userSpaceOnUse">
      <path
         id="path135020"
         d="m 0,0 752.598,0 0,14400 L 0,14400 0,0 Z" />
    </clipPath>
    <clipPath
       id="clipPath134996"
       clipPathUnits="userSpaceOnUse">
      <path
         id="path134998"
         d="m 0,0 752.598,0 0,14400 L 0,14400 0,0 Z" />
    </clipPath>
  </defs>
  <metadata
     id="metadata136835">
    <rdf:RDF>
      <cc:Work
         rdf:about="">
        <dc:format>image/svg+xml</dc:format>
        <dc:type
           rdf:resource="http://purl.org/dc/dcmitype/StillImage" />
        <dc:title></dc:title>
      </cc:Work>
    </rdf:RDF>
  </metadata>
  <g
     transform="translate(-591.85218,18.997123)"
     id="layer1">
    <g
       transform="matrix(3.8492895,0,0,-3.8492895,884.40846,102.38874)"
       id="g134900">
      <path
         id="path134902"
         style="fill:#7c529e;fill-opacity:1;fill-rule:nonzero;stroke:none"
         d="m 0,0 c 0,-0.02 -0.001,-0.036 -0.003,-0.05 -0.001,-0.014 -0.004,-0.025 -0.007,-0.033 -0.003,-0.009 -0.008,-0.015 -0.013,-0.019 -0.005,-0.004 -0.01,-0.006 -0.016,-0.006 l -0.327,0 0,-1.051 c 0,-0.007 -0.002,-0.013 -0.006,-0.018 -0.005,-0.006 -0.012,-0.01 -0.022,-0.013 -0.01,-0.004 -0.024,-0.006 -0.041,-0.008 -0.017,-0.002 -0.038,-0.003 -0.064,-0.003 -0.025,0 -0.047,0.001 -0.064,0.003 -0.017,0.002 -0.031,0.004 -0.041,0.008 -0.01,0.003 -0.017,0.007 -0.021,0.013 -0.005,0.005 -0.007,0.011 -0.007,0.018 l 0,1.051 -0.326,0 c -0.007,0 -0.013,0.002 -0.018,0.006 -0.004,0.004 -0.008,0.01 -0.012,0.019 -0.003,0.008 -0.006,0.019 -0.007,0.033 -0.002,0.014 -0.003,0.03 -0.003,0.05 0,0.02 0.001,0.037 0.003,0.051 0.001,0.014 0.004,0.026 0.007,0.034 0.004,0.009 0.008,0.015 0.012,0.018 0.005,0.004 0.011,0.006 0.018,0.006 l 0.919,0 c 0.006,0 0.011,-0.002 0.016,-0.006 C -0.018,0.1 -0.013,0.094 -0.01,0.085 -0.007,0.077 -0.004,0.065 -0.003,0.051 -0.001,0.037 0,0.02 0,0" />
    </g>
    <g
       transform="matrix(3.8492895,0,0,-3.8492895,890.85218,106.85083)"
       id="g134904">
      <path
         id="path134906"
         style="fill:#7c529e;fill-opacity:1;fill-rule:nonzero;stroke:none"
         d="m 0,0 c 0,-0.007 -0.002,-0.013 -0.005,-0.018 -0.004,-0.006 -0.011,-0.01 -0.021,-0.013 -0.009,-0.004 -0.022,-0.006 -0.038,-0.008 -0.017,-0.002 -0.037,-0.003 -0.062,-0.003 -0.024,0 -0.044,0.001 -0.06,0.003 -0.017,0.002 -0.029,0.004 -0.039,0.008 -0.009,0.003 -0.016,0.007 -0.02,0.013 -0.004,0.005 -0.006,0.011 -0.006,0.018 l 0,1.061 -0.002,0 -0.378,-1.06 c -0.003,-0.009 -0.007,-0.016 -0.013,-0.022 -0.006,-0.005 -0.014,-0.01 -0.025,-0.013 -0.01,-0.004 -0.023,-0.006 -0.039,-0.007 -0.017,-0.001 -0.036,-0.001 -0.059,-0.001 -0.023,0 -0.042,0 -0.058,0.002 -0.016,0.002 -0.03,0.005 -0.04,0.008 -0.011,0.004 -0.019,0.008 -0.025,0.014 -0.006,0.005 -0.01,0.012 -0.012,0.019 l -0.365,1.06 -0.002,0 0,-1.061 c 0,-0.007 -0.002,-0.013 -0.005,-0.018 -0.004,-0.006 -0.011,-0.01 -0.021,-0.013 -0.01,-0.004 -0.023,-0.006 -0.039,-0.008 -0.016,-0.002 -0.036,-0.003 -0.061,-0.003 -0.024,0 -0.044,0.001 -0.06,0.003 -0.016,0.002 -0.029,0.004 -0.039,0.008 -0.01,0.003 -0.017,0.007 -0.02,0.013 C -1.518,-0.013 -1.52,-0.007 -1.52,0 l 0,1.162 c 0,0.034 0.009,0.06 0.027,0.079 0.019,0.018 0.043,0.027 0.073,0.027 l 0.173,0 c 0.031,0 0.058,-0.003 0.08,-0.008 0.022,-0.005 0.041,-0.013 0.057,-0.025 0.017,-0.012 0.03,-0.027 0.041,-0.046 0.01,-0.019 0.02,-0.043 0.028,-0.071 l 0.282,-0.777 0.004,0 0.292,0.775 c 0.009,0.028 0.019,0.052 0.029,0.071 0.011,0.02 0.023,0.035 0.036,0.048 0.014,0.012 0.031,0.02 0.049,0.025 0.019,0.005 0.041,0.008 0.066,0.008 l 0.178,0 c 0.018,0 0.034,-0.002 0.047,-0.007 C -0.045,1.256 -0.034,1.249 -0.026,1.24 -0.017,1.231 -0.011,1.22 -0.007,1.207 -0.002,1.194 0,1.179 0,1.162 L 0,0 Z" />
    </g>
    <g
       transform="matrix(3.8492895,0,0,-3.8492895,644.54615,85.156239)"
       id="g134908">
      <path
         id="path134910"
         style="fill:#7c529e;fill-opacity:1;fill-rule:nonzero;stroke:none"
         d="m 0,0 c 0,0 -2.459,0.297 -4.156,0.783 -1.633,0.438 -6.2,1.593 -6.992,7.377 -0.202,1.411 -0.261,2.687 -0.277,3.825 -0.053,3.737 0.689,6.049 1.985,7.622 0.073,0.122 1.117,1.476 3.671,2.483 2.048,1.012 11.212,1.815 18.783,2.204 4.991,0.256 11.149,0.309 17.792,0.168 5.291,-0.112 10.885,-0.308 16.473,-0.895 9.072,-1.018 10.736,-2.452 12.079,-4.12 0.738,-1.054 1.147,-2.407 1.532,-4.635 0.201,-1.817 0.148,-3.634 -0.087,-5.495 -0.696,-5.74 -2.095,-8.648 -15.911,-9.754 -1.189,-0.081 -2.487,-0.228 -3.875,-0.262 0,0 -5.752,-0.318 -12.619,-0.42 -4.979,-0.074 -10.553,0.013 -14.935,0.173 -1.857,0.069 -4.116,0.229 -4.116,0.229 0,0 -4.496,-5.825 -5.412,-7.077 C 3.02,-9.043 2.186,-9.987 0.974,-9.609 0.25,-9.383 0.041,-8.64 0,-7.574 -0.035,-6.671 0,0 0,0" />
    </g>
    <g
       transform="matrix(3.8492895,0,0,-3.8492895,672.48004,95.777198)"
       id="g134912">
      <path
         id="path134914"
         style="fill:#7c529e;fill-opacity:1;fill-rule:nonzero;stroke:none"
         d="m 0,0 c 1.408,-0.085 3.486,-0.183 5.431,-0.265 4.59,-0.192 10.428,-0.299 15.643,-0.217 7.328,-0.038 16.032,0.69 17.278,0.783 14.879,0.533 17.155,5.68 17.197,13.913 0.027,5.271 -0.797,7.788 -2.028,9.35 -1.405,1.954 -3.147,3.634 -12.649,4.834 -5.853,0.693 -11.712,0.928 -17.254,1.064 -6.958,0.17 -13.409,0.114 -18.638,-0.181 -7.929,-0.449 -17.529,-1.38 -19.676,-2.562 -2.675,-1.177 -3.77,-2.761 -3.847,-2.904 -1.358,-1.839 -2.194,-4.567 -2.141,-8.942 0.016,-1.332 0.042,-2.84 0.252,-4.492 0.825,-6.771 5.741,-8.275 7.452,-8.79 C -8.837,0.307 -1.391,0.084 0,0" />
    </g>
    <g
       transform="matrix(3.8492895,0,0,-3.8492895,700.51368,63.403134)"
       id="g134916">
      <path
         id="path134918"
         style="fill:#ffffff;fill-opacity:1;fill-rule:nonzero;stroke:none"
         d="m 0,0 -4.152,10.345 c -0.056,0.13 -0.099,0.271 -0.13,0.423 -0.032,0.151 -0.047,0.305 -0.047,0.46 0,0.439 0.153,0.804 0.458,1.095 0.305,0.291 0.689,0.437 1.15,0.437 0.337,0 0.613,-0.101 0.828,-0.302 0.215,-0.201 0.412,-0.543 0.593,-1.026 L 1.517,3.823 4.236,11.32 c 0.181,0.539 0.386,0.914 0.617,1.124 0.23,0.21 0.536,0.316 0.916,0.316 0.468,0 0.835,-0.127 1.104,-0.381 0.267,-0.254 0.402,-0.6 0.402,-1.04 0,-0.173 -0.018,-0.352 -0.052,-0.534 C 7.189,10.622 7.137,10.444 7.069,10.271 L 3.048,0.121 C 2.867,-0.337 2.655,-0.666 2.412,-0.864 2.169,-1.062 1.858,-1.161 1.477,-1.161 c -0.355,0 -0.646,0.09 -0.874,0.27 C 0.375,-0.712 0.174,-0.415 0,0" />
    </g>
    <g
       transform="matrix(3.8492895,0,0,-3.8492895,742.61717,59.920296)"
       id="g134920">
      <path
         id="path134922"
         style="fill:#ffffff;fill-opacity:1;fill-rule:nonzero;stroke:none"
         d="m 0,0 c 0,-0.703 -0.115,-1.224 -0.345,-1.561 -0.229,-0.337 -0.583,-0.505 -1.06,-0.505 -0.483,0 -0.843,0.17 -1.078,0.51 -0.236,0.34 -0.354,0.858 -0.354,1.556 l 0,5.706 c 0,0.698 0.117,1.215 0.35,1.552 0.232,0.337 0.593,0.506 1.082,0.506 0.477,0 0.831,-0.169 1.06,-0.506 C -0.115,6.921 0,6.404 0,5.706 L 0,0 Z" />
    </g>
    <g
       transform="matrix(3.8492895,0,0,-3.8492895,759.15837,30.342359)"
       id="g134924">
      <path
         id="path134926"
         style="fill:#ffffff;fill-opacity:1;fill-rule:nonzero;stroke:none"
         d="m 0,0 c 0.33,0.287 0.693,0.502 1.089,0.645 0.396,0.143 0.825,0.215 1.286,0.215 1.303,0 2.401,-0.516 3.296,-1.547 0.894,-1.032 1.342,-2.321 1.342,-3.867 0,-1.458 -0.458,-2.703 -1.375,-3.735 -0.916,-1.032 -2.004,-1.548 -3.263,-1.548 -0.499,0 -0.957,0.088 -1.374,0.262 -0.418,0.175 -0.777,0.43 -1.076,0.767 -0.187,-0.324 -0.4,-0.567 -0.64,-0.729 -0.24,-0.162 -0.507,-0.244 -0.8,-0.244 -0.511,0 -0.89,0.181 -1.136,0.543 -0.246,0.361 -0.369,0.913 -0.369,1.655 l 0,9.555 c 0,0.748 0.123,1.303 0.369,1.664 0.246,0.362 0.625,0.542 1.136,0.542 0.511,0 0.892,-0.18 1.141,-0.542 C -0.125,3.275 0,2.72 0,1.972 L 0,0 Z m -0.23,-4.499 c 0,-0.827 0.201,-1.492 0.605,-1.993 0.403,-0.502 0.923,-0.753 1.561,-0.753 0.63,0 1.149,0.255 1.555,0.763 0.407,0.508 0.611,1.169 0.611,1.983 0,0.827 -0.202,1.498 -0.606,2.013 -0.403,0.515 -0.923,0.773 -1.56,0.773 -0.638,0 -1.158,-0.256 -1.561,-0.768 -0.404,-0.512 -0.605,-1.184 -0.605,-2.018" />
    </g>
    <g
       transform="matrix(3.8492895,0,0,-3.8492895,799.20521,50.839053)"
       id="g134928">
      <path
         id="path134930"
         style="fill:#ffffff;fill-opacity:1;fill-rule:nonzero;stroke:none"
         d="m 0,0 c 0.069,-0.565 0.474,-1.007 0.873,-1.324 0.399,-0.317 0.926,-0.475 1.58,-0.475 0.568,0 1.199,0.163 1.894,0.489 0.695,0.327 1.123,0.49 1.286,0.49 0.355,0 0.645,-0.109 0.869,-0.327 0.225,-0.217 0.337,-0.497 0.337,-0.838 0,-0.647 -0.452,-1.23 -1.356,-1.748 -0.904,-0.519 -1.967,-0.779 -3.188,-0.779 -1.49,0 -2.734,0.507 -3.731,1.52 -0.998,1.013 -1.496,2.284 -1.496,3.812 0,1.535 0.484,2.815 1.454,3.841 0.969,1.025 2.177,1.538 3.623,1.538 1.396,0 2.565,-0.482 3.506,-1.445 C 6.592,3.791 7.063,2.613 7.063,1.221 7.063,0.767 6.96,0.451 6.755,0.27 6.549,0.09 6.153,0 5.567,0 L 0,0 Z m -0.121,1.763 4.437,0 C 4.275,2.323 4.049,2.906 3.637,3.282 3.226,3.657 2.736,3.846 2.167,3.846 1.605,3.846 1.065,3.668 0.661,3.313 0.256,2.957 -0.004,2.364 -0.121,1.763" />
    </g>
    <g
       transform="matrix(3.8492895,0,0,-3.8492895,829.62384,59.362919)"
       id="g134932">
      <path
         id="path134934"
         style="fill:#ffffff;fill-opacity:1;fill-rule:nonzero;stroke:none"
         d="M 0,0 0,6.068 C 0,6.81 0.123,7.36 0.369,7.719 0.616,8.077 0.994,8.256 1.505,8.256 1.811,8.256 2.082,8.177 2.319,8.018 2.556,7.859 2.765,7.617 2.945,7.293 3.257,7.63 3.587,7.884 3.937,8.055 4.286,8.227 4.638,8.312 4.993,8.312 5.411,8.312 5.771,8.164 6.073,7.868 6.375,7.572 6.527,7.221 6.527,6.816 6.527,6.212 5.972,5.707 4.862,5.302 4.463,5.158 4.164,5.04 3.965,4.946 3.584,4.765 3.332,4.564 3.207,4.343 3.082,4.122 3.02,3.721 3.02,3.142 L 3.02,0 c 0,-0.742 -0.125,-1.294 -0.374,-1.655 -0.249,-0.362 -0.629,-0.542 -1.141,-0.542 -0.511,0 -0.889,0.18 -1.136,0.542 C 0.123,-1.294 0,-0.742 0,0" />
    </g>
    <g
       transform="matrix(3.8492895,0,0,-3.8492895,731.34301,20.324968)"
       id="g134936">
      <path
         id="path134938"
         style="fill:#ffffff;fill-opacity:1;fill-rule:nonzero;stroke:none"
         d="M 0,0 C 0,0.433 0.156,0.803 0.468,1.112 0.779,1.421 1.154,1.576 1.59,1.576 2.021,1.576 2.39,1.421 2.696,1.112 3.002,0.803 3.155,0.433 3.155,0 3.155,-0.438 3.004,-0.809 2.7,-1.112 2.397,-1.416 2.027,-1.568 1.59,-1.568 1.142,-1.568 0.765,-1.416 0.459,-1.112 0.153,-0.809 0,-0.438 0,0" />
    </g>
    <g
       transform="matrix(3.8492895,0,0,-3.8492895,662.84068,38.330401)"
       id="g134940">
      <path
         id="path134942"
         style="fill:#ffffff;fill-opacity:1;fill-rule:nonzero;stroke:none"
         d="m 0,0 c -0.174,0 -0.32,0.137 -0.329,0.313 -0.055,1.118 -0.582,1.666 -1.658,1.724 -0.182,0.01 -0.321,0.165 -0.311,0.347 0.01,0.181 0.164,0.322 0.346,0.311 C -0.532,2.619 0.257,1.806 0.329,0.346 0.338,0.164 0.198,0.009 0.017,0 0.011,0 0.006,0 0,0" />
    </g>
    <g
       transform="matrix(3.8492895,0,0,-3.8492895,669.3502,40.510639)"
       id="g134944">
      <path
         id="path134946"
         style="fill:#ffffff;fill-opacity:1;fill-rule:nonzero;stroke:none"
         d="M 0,0 C -0.003,0 -0.005,0 -0.008,0 -0.19,0.004 -0.334,0.155 -0.33,0.337 -0.304,1.463 -0.626,2.375 -1.313,3.125 -1.997,3.873 -2.936,4.281 -4.185,4.373 -4.366,4.386 -4.503,4.544 -4.489,4.725 -4.476,4.907 -4.318,5.043 -4.137,5.03 -2.732,4.927 -1.619,4.436 -0.827,3.57 -0.031,2.701 0.358,1.609 0.329,0.322 0.325,0.143 0.178,0 0,0" />
    </g>
    <g
       transform="matrix(3.8492895,0,0,-3.8492895,676.01446,43.118918)"
       id="g134948">
      <path
         id="path134950"
         style="fill:#ffffff;fill-opacity:1;fill-rule:nonzero;stroke:none"
         d="m 0,0 c -0.181,0 -0.328,0.146 -0.329,0.327 -0.016,2.015 -0.596,3.553 -1.774,4.704 -1.164,1.133 -2.635,1.715 -4.372,1.727 -0.182,0.002 -0.328,0.15 -0.327,0.332 10e-4,0.181 0.149,0.327 0.329,0.327 l 0.003,0 C -4.557,7.404 -2.933,6.759 -1.643,5.502 -0.351,4.241 0.313,2.501 0.329,0.332 0.331,0.15 0.185,0.001 0.003,0 L 0,0 Z" />
    </g>
    <g
       transform="matrix(3.8492895,0,0,-3.8492895,655.51163,54.0509)"
       id="g134952">
      <path
         id="path134954"
         style="fill:#ffffff;fill-opacity:1;fill-rule:nonzero;stroke:none"
         d="M 0,0 C 0,0 0.463,-0.041 0.713,0.268 L 1.199,0.88 C 1.433,1.183 2,1.377 2.554,1.068 2.863,0.893 3.416,0.551 3.763,0.296 4.132,0.025 4.885,-0.602 4.887,-0.604 5.246,-0.907 5.329,-1.352 5.085,-1.821 5.085,-1.823 5.082,-1.828 5.082,-1.831 4.831,-2.274 4.495,-2.69 4.07,-3.077 4.066,-3.079 4.066,-3.082 4.061,-3.084 3.713,-3.375 3.37,-3.54 3.033,-3.581 2.993,-3.589 2.944,-3.592 2.883,-3.59 2.737,-3.591 2.591,-3.57 2.447,-3.523 l -0.011,0.016 c -0.519,0.146 -1.384,0.512 -2.826,1.307 -0.937,0.517 -1.716,1.044 -2.374,1.569 -0.347,0.274 -0.704,0.585 -1.067,0.946 -0.012,0.012 -0.024,0.024 -0.036,0.036 -0.012,0.012 -0.024,0.024 -0.036,0.036 l 0,0 0,0 C -3.916,0.399 -3.927,0.411 -3.939,0.424 -3.951,0.435 -3.963,0.447 -3.975,0.459 -4.336,0.822 -4.648,1.18 -4.922,1.527 -5.447,2.185 -5.974,2.964 -6.49,3.901 -7.285,5.342 -7.651,6.208 -7.797,6.726 l -0.016,0.011 c -0.047,0.144 -0.069,0.29 -0.067,0.437 -0.003,0.061 0.001,0.11 0.009,0.15 0.04,0.336 0.205,0.679 0.496,1.028 0.003,0.004 0.005,0.004 0.007,0.009 0.388,0.425 0.803,0.761 1.247,1.012 0.002,0 0.007,0.002 0.009,0.002 0.47,0.244 0.915,0.162 1.217,-0.198 0.003,-0.002 0.63,-0.755 0.9,-1.123 0.256,-0.347 0.598,-0.9 0.772,-1.209 C -2.914,6.29 -3.107,5.723 -3.411,5.49 L -4.023,5.003 C -4.331,4.754 -4.291,4.291 -4.291,4.291 -4.291,4.291 -3.386,0.864 0,0" />
    </g>
  </g>
</svg>
